# xmcd CD database file
#
# Track frame offsets:
#	150
#	16140
#	32987
#	46972
#	64350
#	80977
#	106247
#	128117
#	146752
#	176235
#	199120
#	217775
#	242412
#	272045
#
# Disc length: 3944 seconds
#
# Revision: 6
# Processed by: cddbd v1.5.2PL0 Copyright (c) Steve Scherf et al.
# Submitted via: CDex 1.70beta3
#
DISCID=cc0f660e
DTITLE=TOMOSUKE - marble
DYEAR=2005
DGENRE=Game
TTITLE0=EeL - The end of my spritually
TTITLE1=Orange Lounge - MOBO★MOGA
TTITLE2=TOMOSUKE feat.Three Berry Icecream - jet coaster★girl
TTITLE3=Orange Lounge - Marmalade Reverie
TTITLE4=Berimbau'66 - Brazilian Anthem
TTITLE5=Dormir - にゃんだふる55
TTITLE6=常盤ゆう - CHOCOLATE PHILOSOPHY
TTITLE7=Frances Maya - Reaching for the Stars
TTITLE8=Frances Maya - Twinkle Star
TTITLE9=TOMOSUKE - Implantation
TTITLE10=燈色特別室 - カゴノトリ
TTITLE11=音々 - 空言の海
TTITLE12=Orange Lounge - LOVE IS ORANGE
TTITLE13=PARALLEL FLOATERS - Infinite
EXTD=YEAR: 2005
EXTT0=
EXTT1=
EXTT2=
EXTT3=
EXTT4=
EXTT5=
EXTT6=
EXTT7=
EXTT8=
EXTT9=
EXTT10=
EXTT11=
EXTT12=
EXTT13=
PLAYORDER=
